<svg width="7" height="7" viewBox="0 0 7 7" fill="none" xmlns="http://www.w3.org/2000/svg">
<g clip-path="url(#clip0_5_202)">
<path d="M6.41214 3.12752L5.17894 4.20377L5.54835 5.80612C5.5679 5.88988 5.56232 5.97755 5.53231 6.05817C5.50231 6.13878 5.4492 6.20876 5.37964 6.25935C5.31008 6.30995 5.22715 6.33892 5.14121 6.34264C5.05527 6.34635 4.97015 6.32466 4.89648 6.28026L3.49894 5.4326L2.10441 6.28026C2.03073 6.32466 1.94561 6.34635 1.85967 6.34264C1.77374 6.33892 1.6908 6.30995 1.62124 6.25935C1.55168 6.20876 1.49857 6.13878 1.46857 6.05817C1.43856 5.97755 1.43298 5.88988 1.45253 5.80612L1.8214 4.20541L0.587921 3.12752C0.522681 3.07126 0.475506 2.99698 0.452311 2.91401C0.429117 2.83104 0.430935 2.74307 0.457538 2.66112C0.484142 2.57918 0.534346 2.50692 0.601855 2.4534C0.669364 2.39987 0.751173 2.36747 0.837023 2.36026L2.46288 2.21944L3.09753 0.705688C3.13067 0.626258 3.18657 0.558411 3.2582 0.510688C3.32982 0.462965 3.41396 0.4375 3.50003 0.4375C3.5861 0.4375 3.67024 0.462965 3.74186 0.510688C3.81349 0.558411 3.86939 0.626258 3.90253 0.705688L4.53909 2.21944L6.1644 2.36026C6.25025 2.36747 6.33206 2.39987 6.39957 2.4534C6.46708 2.50692 6.51729 2.57918 6.54389 2.66112C6.57049 2.74307 6.57231 2.83104 6.54912 2.91401C6.52592 2.99698 6.47875 3.07126 6.41351 3.12752H6.41214Z" fill="white"/>
</g>
<defs>
<clipPath id="clip0_5_202">
<rect width="7" height="7" fill="white"/>
</clipPath>
</defs>
</svg>
