<svg width="26" height="26" viewBox="0 0 26 26" fill="none" xmlns="http://www.w3.org/2000/svg">
<path d="M20.8874 19.7376C20.9629 19.8131 21.0227 19.9027 21.0636 20.0014C21.1044 20.1 21.1255 20.2057 21.1255 20.3125C21.1255 20.4192 21.1044 20.5249 21.0636 20.6236C21.0227 20.7222 20.9629 20.8118 20.8874 20.8873C20.8119 20.9628 20.7223 21.0227 20.6236 21.0635C20.525 21.1044 20.4193 21.1254 20.3125 21.1254C20.2058 21.1254 20.1001 21.1044 20.0014 21.0635C19.9028 21.0227 19.8132 20.9628 19.7377 20.8873L13 14.1486L6.26237 20.8873C6.10991 21.0398 5.90313 21.1254 5.68752 21.1254C5.47192 21.1254 5.26514 21.0398 5.11268 20.8873C4.96022 20.7348 4.87457 20.5281 4.87457 20.3125C4.87457 20.0969 4.96022 19.8901 5.11268 19.7376L11.8514 13L5.11268 6.26231C4.96022 6.10985 4.87457 5.90307 4.87457 5.68746C4.87457 5.47186 4.96022 5.26508 5.11268 5.11262C5.26514 4.96016 5.47192 4.87451 5.68752 4.87451C5.90313 4.87451 6.10991 4.96016 6.26237 5.11262L13 11.8513L19.7377 5.11262C19.8901 4.96016 20.0969 4.87451 20.3125 4.87451C20.5281 4.87451 20.7349 4.96016 20.8874 5.11262C21.0398 5.26508 21.1255 5.47186 21.1255 5.68746C21.1255 5.90307 21.0398 6.10985 20.8874 6.26231L14.1487 13L20.8874 19.7376Z" fill="white"/>
</svg>
